<svg xmlns="http://www.w3.org/2000/svg" xmlns:svg="http://www.w3.org/2000/svg" id="svg8" width="210mm" height="297mm" version="1.1" viewBox="0 0 210 297"><defs id="defs2"><linearGradient id="linearGradient3472" x1="272.65" x2="358.84" y1="412.103" y2="367.539" gradientTransform="translate(-268.34645,335.74803)" gradientUnits="userSpaceOnUse" spreadMethod="pad"><stop id="stop3474" offset="0" style="stop-opacity:1;stop-color:#b1e356"/><stop id="stop3476" offset=".685" style="stop-opacity:1;stop-color:#080"/><stop id="stop3478" offset=".978" style="stop-opacity:1;stop-color:#006800"/><stop id="stop3480" offset="1" style="stop-opacity:1;stop-color:#006800"/></linearGradient><linearGradient id="linearGradient3484" x1="326.963" x2="345.272" y1="408.838" y2="399.371" gradientTransform="translate(-268.34645,335.74803)" gradientUnits="userSpaceOnUse" spreadMethod="pad"><stop id="stop3486" offset="0" style="stop-opacity:1;stop-color:#080"/><stop id="stop3488" offset=".051" style="stop-opacity:1;stop-color:#080"/><stop id="stop3490" offset=".978" style="stop-opacity:1;stop-color:#006800"/><stop id="stop3492" offset="1" style="stop-opacity:1;stop-color:#006800"/></linearGradient><linearGradient id="linearGradient3496" x1="281.431" x2="358.317" y1="410.207" y2="370.453" gradientTransform="translate(-268.34645,335.74803)" gradientUnits="userSpaceOnUse" spreadMethod="pad"><stop id="stop3498" offset="0" style="stop-opacity:1;stop-color:#60b656"/><stop id="stop3500" offset=".494" style="stop-opacity:1;stop-color:#086d05"/><stop id="stop3502" offset=".528" style="stop-opacity:1;stop-color:#080"/><stop id="stop3504" offset=".978" style="stop-opacity:1;stop-color:#004900"/><stop id="stop3506" offset="1" style="stop-opacity:1;stop-color:#004900"/></linearGradient><linearGradient id="linearGradient3510" x1="321.17" x2="335.388" y1="396.925" y2="389.574" gradientTransform="translate(-268.34645,335.74803)" gradientUnits="userSpaceOnUse" spreadMethod="pad"><stop id="stop3512" offset="0" style="stop-opacity:1;stop-color:#080"/><stop id="stop3514" offset=".051" style="stop-opacity:1;stop-color:#080"/><stop id="stop3516" offset=".978" style="stop-opacity:1;stop-color:#006800"/><stop id="stop3518" offset="1" style="stop-opacity:1;stop-color:#006800"/></linearGradient><linearGradient id="linearGradient3522" x1="280.252" x2="304.055" y1="414.804" y2="402.497" gradientTransform="translate(-268.34645,335.74803)" gradientUnits="userSpaceOnUse" spreadMethod="pad"><stop id="stop3524" offset="0" style="stop-opacity:1;stop-color:#7cac56"/><stop id="stop3526" offset=".494" style="stop-opacity:1;stop-color:#086d05"/><stop id="stop3528" offset=".528" style="stop-opacity:1;stop-color:#080"/><stop id="stop3530" offset=".978" style="stop-opacity:1;stop-color:#004900"/><stop id="stop3532" offset="1" style="stop-opacity:1;stop-color:#004900"/></linearGradient><linearGradient id="linearGradient3536" x1="268.896" x2="303.233" y1="401.524" y2="383.77" gradientTransform="translate(-268.34645,335.74803)" gradientUnits="userSpaceOnUse" spreadMethod="pad"><stop id="stop3538" offset="0" style="stop-opacity:1;stop-color:#7cac56"/><stop id="stop3540" offset=".494" style="stop-opacity:1;stop-color:#086d05"/><stop id="stop3542" offset=".528" style="stop-opacity:1;stop-color:#080"/><stop id="stop3544" offset=".978" style="stop-opacity:1;stop-color:#004900"/><stop id="stop3546" offset="1" style="stop-opacity:1;stop-color:#004900"/></linearGradient></defs><metadata id="metadata5"/><g id="layer1"><g id="g3468" transform="matrix(2.079806,0,0,-1.5323911,41.475361,1274.7582)"><path id="path3470" d="m 32.813247,718.30853 c 0,0 0.5,-13.75 -2.5,-20 0,0 -5.25,-14.5 1,-25 0,0 17.3325,-9.166 29.9321,4.2422 0,0 1.7344,3.5918 -0.9316,10.7578 0,0 -3.25,8.75 -3.5,25 0,0 0.25,6.75 1,11 0,0 18,1 19.5,15.5005 0,0 1.499998,16 -6,18 0,0 -10.5,2.25 -10.5,-7.5 0,0 1.5,-10.75 -4,-11 0,0 -2,1 -2,7.5 0,0 2.5,20.5 -6.5,35.5 0,0 -7.5,12 -19.5005,2.5 0,0 -4.5,-4.5 0,-14 0,0 7.5,-19 4,-32 0,0 -0.75,-6.75 -4.5,-6.5 0,0 -5,-0.5 -2.5,9 0,0 5.5,12.75 -3,18 0,0 -12.5,4.5 -16.5000003,-12.5 0,0 -5.0000001,-13.5 0.5,-23.5005 0,0 4.7500003,-8.75 26.0000003,-5 z" style="fill:#000;fill-opacity:1;fill-rule:nonzero;stroke:none"/></g></g></svg>